# xmcd
# 
# Track frame offsets:
#     150
#     15531
#     27874
#     44614
#     58606
#     74576
#     92431
#     111801
#     129199
#     141314
#     156799
#     174316
#     188269
#     201536
# 
# Disc length: 2880
# 
# Revision: 2
# Processed by: cddbd v1.5.2PL0 Copyright (c) Steve Scherf et al.
# Submitted via: BonkEnc v1.0.5
# 
DISCID=ba0b3e0e
DTITLE=Sérgio Reis - Warner 30 Anos
DYEAR=0
DGENRE=Country
TTITLE0=Um Violeiro Toca
TTITLE1=Cavalo Enxuto
TTITLE2=Tocando em Frente
TTITLE3=Coice de Alazão
TTITLE4=Guantanamera
TTITLE5=Bicho do Mato
TTITLE6=Você Virou Miragem
TTITLE7=Segura, Peão
TTITLE8=Quebra-Cama
TTITLE9=Vaca Estrela e Boi Fubá
TTITLE10=Cabocla Tereza
TTITLE11=Gaúcho Largado
TTITLE12=Marcando Estrada
TTITLE13=Estrada da Saudade
EXTD=
EXTT0=
EXTT1=
EXTT2=
EXTT3=
EXTT4=
EXTT5=
EXTT6=
EXTT7=
EXTT8=
EXTT9=
EXTT10=
EXTT11=
EXTT12=
EXTT13=
PLAYORDER=
